<?xml version="1.0" standalone="no"?>
<!DOCTYPE svg PUBLIC "-//W3C//DTD SVG 20010904//EN"
 "http://www.w3.org/TR/2001/REC-SVG-20010904/DTD/svg10.dtd">
<svg version="1.0" xmlns="http://www.w3.org/2000/svg"
 width="1152.000000pt" height="648.000000pt" viewBox="0 0 1152.000000 648.000000"
 preserveAspectRatio="xMidYMid meet">

<g transform="translate(0.000000,648.000000) scale(0.100000,-0.100000)"
fill="#000000" stroke="none">
<path d="M0 5848 c0 -348 4 -628 8 -622 4 5 23 10 42 10 48 -1 53 31 10 62
-54 41 -31 106 36 100 41 -4 46 -22 7 -26 -48 -6 -51 -20 -10 -57 44 -40 47
-66 10 -95 -22 -17 -36 -20 -65 -16 l-38 6 0 -40 0 -40 824 0 c777 0 825 1
830 18 2 9 10 53 17 97 6 44 16 86 22 93 15 19 65 14 87 -8 45 -45 6 -130 -60
-130 -23 0 -30 -4 -30 -19 0 -11 -3 -26 -6 -35 -6 -15 83 -16 955 -16 l961 0
0 368 c0 365 0 367 -19 336 -41 -68 -140 -63 -175 9 -16 34 -17 42 -4 75 29
79 135 90 179 18 l19 -31 0 288 0 287 -467 0 c-323 -1 -463 -4 -450 -11 21
-12 23 -62 2 -79 -42 -35 -97 30 -60 70 18 20 17 20 -19 20 -34 0 -36 -1 -22
-16 20 -20 20 -48 0 -68 -18 -19 -28 -20 -55 -6 -25 14 -26 65 -1 79 11 7
-386 10 -1255 11 l-1273 0 0 -632z m2754 480 c53 -76 -52 -151 -107 -77 -33
45 -1 99 58 99 24 0 39 -7 49 -22z m150 0 c53 -76 -52 -151 -107 -77 -33 45
-1 99 58 99 24 0 39 -7 49 -22z m150 0 c53 -76 -52 -151 -107 -77 -33 45 -1
99 58 99 24 0 39 -7 49 -22z m-111 -158 c77 -60 6 -187 -83 -150 -65 27 -79
92 -31 141 35 35 77 38 114 9z m210 -11 c45 -56 3 -143 -70 -143 -87 0 -115
119 -38 163 28 16 87 5 108 -20z m186 5 c37 -31 42 -78 11 -117 -63 -80 -192
2 -145 93 28 54 86 65 134 24z m-3009 -45 c0 -11 -86 -535 -96 -581 -6 -28 -6
-28 -90 -28 -77 0 -84 2 -84 20 0 23 88 569 95 588 6 16 175 17 175 1z m458 2
c-1 -5 -65 -73 -140 -150 -76 -78 -138 -145 -138 -149 0 -4 41 -70 91 -147 50
-77 94 -145 96 -152 4 -10 -18 -13 -93 -13 l-99 0 -86 138 c-47 76 -89 148
-93 160 -8 24 12 48 198 240 l81 82 93 0 c52 0 92 -4 90 -9z m289 -116 c41
-75 74 -125 83 -125 9 0 44 33 79 73 35 39 86 96 113 125 l50 52 83 0 c46 0
86 -3 88 -7 3 -5 -73 -96 -168 -203 l-174 -194 -11 -71 c-6 -38 -14 -86 -18
-105 l-8 -35 -87 -3 c-53 -2 -87 1 -87 7 0 6 7 55 16 110 l15 99 -114 193
c-63 107 -113 197 -110 202 2 4 44 7 93 7 l89 0 68 -125z m717 117 c4 -7 -32
-241 -89 -579 l-6 -33 -90 0 c-88 0 -89 0 -84 23 3 12 26 148 50 301 25 153
48 283 51 288 7 10 161 11 168 0z m228 -10 c3 -4 35 -114 70 -245 35 -131 67
-239 72 -240 5 -1 78 109 164 246 l155 247 88 0 c49 0 89 -3 89 -6 0 -13 -351
-562 -371 -580 -18 -16 -37 -19 -140 -19 -105 0 -121 2 -138 20 -20 22 -174
572 -164 588 6 10 164 0 175 -11z m858 -137 c37 -19 50 -43 50 -93 0 -54 -38
-92 -92 -92 -50 0 -74 13 -94 52 -20 38 -12 87 19 115 39 36 73 41 117 18z
m220 0 c37 -19 50 -43 50 -93 0 -69 -57 -109 -128 -90 -34 9 -72 57 -72 91 0
30 29 76 58 91 35 19 56 20 92 1z m216 0 c47 -19 70 -72 54 -121 -14 -43 -48
-66 -95 -66 -47 0 -81 23 -95 66 -16 48 7 101 52 121 42 18 42 18 84 0z m-591
-229 c62 -26 74 -89 26 -137 -35 -35 -77 -38 -114 -9 -51 40 -42 120 17 146
38 16 31 16 71 0z m215 -6 c10 -5 23 -25 29 -43 31 -92 -72 -155 -140 -88 -37
38 -39 82 -4 116 26 27 80 34 115 15z m207 -12 c54 -51 14 -148 -62 -148 -75
0 -114 92 -63 147 29 31 92 32 125 1z m198 -3 c53 -52 14 -144 -62 -145 -76 0
-115 89 -63 145 32 34 91 35 125 0z m-745 -195 c26 -26 26 -64 -1 -91 -28 -28
-76 -22 -102 12 -47 64 46 136 103 79z m150 0 c26 -26 26 -64 -1 -91 -28 -28
-76 -22 -102 12 -47 64 46 136 103 79z m150 0 c41 -41 10 -110 -47 -110 -34 0
-46 8 -62 37 -15 30 -14 36 10 67 25 32 70 35 99 6z m150 0 c41 -41 10 -110
-47 -110 -34 0 -46 8 -62 38 -34 65 56 125 109 72z m-2810 -140 c0 -11 -6 -20
-13 -20 -19 0 -27 10 -20 26 8 21 33 17 33 -6z m1286 9 c10 -17 -13 -36 -27
-22 -12 12 -4 33 11 33 5 0 12 -5 16 -11z m-1191 -36 c-4 -21 -9 -47 -11 -58
-4 -15 2 -12 24 13 16 17 36 32 45 32 24 0 21 -7 -10 -34 l-28 -24 18 -36 c21
-45 21 -46 2 -46 -9 0 -21 11 -27 25 -13 30 -32 28 -36 -3 -4 -23 -32 -31 -32
-9 0 14 16 114 25 155 3 12 12 22 21 22 12 0 14 -8 9 -37z m599 -15 l-7 -53
30 28 c49 45 73 34 27 -14 -25 -26 -25 -28 -10 -57 20 -38 20 -42 1 -42 -9 0
-21 11 -27 25 -6 14 -15 25 -19 25 -5 0 -11 -11 -15 -25 -3 -14 -12 -25 -20
-25 -17 0 -17 -3 1 100 8 47 15 86 15 88 0 1 7 2 15 2 13 0 15 -9 9 -52z m451
30 c27 -120 35 -155 35 -165 0 -24 -28 -13 -34 12 -5 20 -13 25 -40 25 -25 0
-35 -6 -44 -25 -6 -14 -18 -25 -27 -25 -8 0 -15 2 -15 4 0 2 20 47 45 100 45
97 69 119 80 74z m1115 -8 l20 -20 20 20 c25 25 32 25 60 2 23 -18 24 -18 42
0 23 23 40 23 63 -2 22 -24 14 -66 -15 -75 -25 -8 -60 11 -60 33 -1 13 -6 10
-21 -10 -25 -34 -52 -36 -73 -6 l-16 22 -16 -22 c-18 -26 -41 -28 -66 -5 -24
22 -23 49 4 67 29 20 34 20 58 -4z m-300 -9 c0 -11 8 -22 18 -24 15 -4 14 -6
-5 -12 -37 -12 -47 -89 -12 -98 27 -7 15 -27 -16 -27 -32 0 -43 24 -34 73 5
27 3 44 -4 49 -7 4 -5 12 6 23 10 9 17 21 17 26 0 5 7 9 15 9 8 0 15 -9 15
-19z m-1650 -31 c24 -24 25 -51 5 -89 -35 -70 -115 -49 -115 29 0 66 68 102
110 60z m160 9 c0 -5 -11 -14 -24 -19 -18 -6 -28 -21 -36 -52 -16 -63 -18 -68
-31 -68 -8 0 -10 15 -5 53 12 91 13 93 57 94 21 1 39 -2 39 -8z m128 -6 c2 -8
-6 -13 -22 -13 -31 0 -34 -20 -6 -38 44 -27 11 -88 -42 -80 -31 4 -35 28 -4
28 35 0 39 14 11 38 -29 26 -31 39 -8 64 19 21 64 21 71 1z m269 -30 l9 -48
23 48 c12 26 28 47 36 47 20 0 20 0 -25 -89 -41 -83 -87 -132 -101 -109 -5 8
1 21 18 34 26 21 27 23 15 73 -15 68 -15 91 1 91 8 0 18 -20 24 -47z m543 37
c0 -6 -11 -15 -25 -20 -15 -6 -27 -20 -31 -37 -12 -56 -21 -77 -33 -81 -11 -4
-12 6 -7 44 13 85 16 93 44 97 49 7 52 7 52 -3z m300 0 c26 -14 33 -54 16 -95
-17 -39 -53 -54 -92 -36 -20 9 -24 18 -24 55 0 36 5 48 26 65 30 23 46 26 74
11z m155 0 c3 -6 -5 -14 -19 -20 -18 -6 -28 -21 -37 -52 -6 -24 -13 -49 -15
-55 -2 -7 -8 -13 -14 -13 -11 0 -12 36 -2 95 6 32 12 40 30 41 12 1 25 4 29 8
9 9 21 7 28 -4z m-1881 -47 c-9 -62 -21 -93 -35 -93 -8 0 -9 15 -4 48 11 76
16 92 32 92 11 0 13 -9 7 -47z m1290 15 c-17 -90 -21 -102 -33 -106 -11 -4
-13 7 -7 59 8 71 11 79 31 79 11 0 13 -8 9 -32z m910 -60 c8 -14 7 -21 -6 -34
-22 -22 -58 -10 -58 21 0 37 43 46 64 13z m76 1 c9 -15 8 -24 -1 -35 -18 -22
-53 -13 -57 15 -6 40 39 56 58 20z"/>
<path d="M1341 5314 c-15 -33 -14 -34 9 -34 15 0 20 7 20 24 0 35 -15 40 -29
10z"/>
<path d="M481 5306 c-19 -23 -10 -70 15 -74 24 -3 48 39 39 69 -7 22 -38 25
-54 5z"/>
<path d="M1892 5308 c-17 -17 -15 -67 3 -74 25 -10 46 16 43 50 -3 33 -25 45
-46 24z"/>
<path d="M1710 5298 c0 -13 -3 -33 -6 -45 -9 -33 31 -31 53 3 20 30 9 57 -26
62 -16 3 -21 -2 -21 -20z"/>
</g>
</svg>
